<?xml version="1.0" standalone="no"?>
<!DOCTYPE svg PUBLIC "-//W3C//DTD SVG 20010904//EN"
 "http://www.w3.org/TR/2001/REC-SVG-20010904/DTD/svg10.dtd">
<svg version="1.0" xmlns="http://www.w3.org/2000/svg"
 width="700.000000pt" height="700.000000pt" viewBox="0 0 700.000000 700.000000"
 preserveAspectRatio="xMidYMid meet">
<metadata>
Created by potrace 1.11, written by Peter Selinger 2001-2013
</metadata>
<g transform="translate(0.000000,700.000000) scale(0.100000,-0.100000)"
fill="#000000" stroke="none">
<path d="M467 6986 c-20 -8 -45 -20 -54 -27 -10 -8 -26 -21 -36 -29 -10 -8
-30 -37 -45 -65 l-26 -50 0 -2895 0 -2895 21 -46 c11 -25 37 -62 58 -82 72
-70 6 -67 1221 -67 l1094 0 0 110 0 110 -157 0 c-87 0 -573 0 -1080 1 -681 0
-924 3 -930 11 -9 17 -10 5679 0 5701 7 16 99 17 1775 15 l1767 -3 3 -302 2
-303 110 0 110 0 0 313 c0 351 -4 376 -65 439 -19 20 -52 44 -73 54 -36 18
-104 19 -1847 21 -1493 2 -1817 0 -1848 -11z"/>
<path d="M3015 5941 c-33 -10 -63 -35 -80 -67 -13 -26 -15 -345 -15 -2902 0
-2605 1 -2876 16 -2900 9 -15 28 -36 42 -47 27 -20 45 -20 1820 -23 1977 -2
1826 -7 1874 60 l23 33 0 2880 0 2881 -23 31 c-47 66 96 61 -1862 61 -976 -1
-1784 -4 -1795 -7z"/>
</g>
</svg>
